<svg width="10" height="10" viewBox="0 0 10 10" fill="none" xmlns="http://www.w3.org/2000/svg">
<path d="M4.1875 0.831238H5.75L5.96875 0.843738L6.09375 0.874988L6.175 0.906238L6.26875 0.956238L6.3375 1.00624L6.4 1.06249L6.44375 1.10624L6.5125 1.19374L6.5625 1.27499L6.60625 1.36874L6.6375 1.46249L6.65625 1.56874L6.6625 1.68124V2.50624L7.475 2.49999H8.10625L8.31875 2.50624L8.49375 2.51874L8.60625 2.54374L8.7 2.58124L8.8 2.64374L8.8875 2.71249L8.95 2.77499L9.01875 2.86874L9.06875 2.95624L9.10625 3.03749L9.14375 3.16249L9.15625 3.24374L9.1625 3.33749V6.51874L9.15625 7.88749L9.14375 8.05624L9.11875 8.15624L9.075 8.26249L9.01875 8.36249L8.95625 8.44999L8.9 8.51249L8.83125 8.57499L8.7375 8.63124L8.65625 8.66874L8.525 8.70624L8.40625 8.72499L8.34375 8.73124L8.2 8.73749H1.63125L1.48125 8.71874L1.4 8.69999L1.26875 8.64374L1.2 8.59999L1.13125 8.54374L1.05625 8.47499L0.987497 8.38749L0.931247 8.29374L0.881247 8.18749L0.849997 8.09374L0.831247 7.96249L0.824997 7.79374V3.42499L0.831247 3.27499L0.849997 3.14999L0.893747 3.02499L0.924997 2.94999L1.0125 2.81874L1.08125 2.74374L1.13125 2.69374L1.24375 2.61249L1.3375 2.56249L1.41875 2.53124L1.50625 2.51249L1.575 2.50624L1.84375 2.49999H2.0375L2.5625 2.50624H3.225L3.31875 2.49999L3.325 1.62499L3.3375 1.51249L3.36875 1.41249L3.41875 1.29374L3.46875 1.20624L3.51875 1.14374L3.575 1.08124L3.6625 0.999988L3.76875 0.931238L3.875 0.881238L4.00625 0.843738L4.05625 0.837488L4.1875 0.831238ZM4.6375 1.65624L4.1625 1.66249L4.15625 2.46874L4.1625 2.50624L4.6625 2.51249H5.35L5.8 2.50624L5.81875 2.49999L5.825 2.39999L5.83125 1.93749V1.66249L5.69375 1.65624H4.6375Z" fill="#6C6B6B"/>
<path d="M1.84375 2.5H2.0375L3.09375 2.5125V2.51875L2.48125 2.53125H1.625L1.51875 2.5375L1.45625 2.55L1.45 2.56875L1.40625 2.58125L1.375 2.59375L1.34375 2.6L1.29375 2.625L1.28125 2.6375L1.2625 2.63125V2.65H1.24375L1.2375 2.675H1.225L1.2125 2.7H1.1875L1.1625 2.7125V2.725L1.13125 2.74375H1.11875L1.1125 2.775H1.1L1.09375 2.8L1.03125 2.8375L1.025 2.85H1.0125L1.01875 2.9L1.00625 2.91875H0.987497L0.981247 2.9375L0.956247 2.94375L0.949997 2.9625H0.937497V3L0.918747 3.03125V3.13125L0.906247 3.225L0.899997 3.23125L0.893747 4.15625L0.887497 6.26875V7.55L0.881247 7.9125V8.0375L0.893747 8.125V8.1625H0.906247L0.924997 8.2375L0.943747 8.2625L0.949997 8.29375L0.962497 8.3V8.31875L0.974997 8.33125L0.993747 8.35625L1.025 8.3875L1.0625 8.4375V8.4625H1.08125L1.10625 8.4875L1.1625 8.5125V8.525L1.1875 8.53125L1.20625 8.55L1.25 8.56875L1.2875 8.5875L1.29375 8.625L1.34375 8.6125L1.40625 8.63125L1.45625 8.675L1.53125 8.6875L3.03125 8.7H8.375L8.5125 8.6875L8.525 8.70625L8.40625 8.725L8.34375 8.73125L8.2 8.7375H1.63125L1.48125 8.71875L1.4 8.7L1.26875 8.64375L1.2 8.6L1.13125 8.54375L1.05625 8.475L0.987497 8.3875L0.931247 8.29375L0.881247 8.1875L0.849997 8.09375L0.831247 7.9625L0.824997 7.79375V3.425L0.831247 3.275L0.849997 3.15L0.893747 3.025L0.924997 2.95L1.0125 2.81875L1.08125 2.74375L1.13125 2.69375L1.24375 2.6125L1.3375 2.5625L1.41875 2.53125L1.50625 2.5125L1.575 2.50625L1.84375 2.5Z" fill="#6C6B6B"/>
<path d="M0.993753 8.36249L1.0125 8.36874L1.0625 8.43749V8.46249H1.08125L1.10625 8.48749L1.1625 8.51249V8.52499L1.1875 8.53124L1.20625 8.54999L1.25 8.56874L1.2875 8.58749L1.29375 8.62499L1.34375 8.61249L1.40625 8.63124L1.45625 8.67499L1.53125 8.68749L3.03125 8.69999H8.375L8.5125 8.68749L8.525 8.70624L8.40625 8.72499L8.34375 8.73124L8.2 8.73749H1.63125L1.48125 8.71874L1.4 8.69999L1.26875 8.64374L1.2 8.59999L1.13125 8.54374L1.05625 8.47499L0.987503 8.38749L0.993753 8.36249Z" fill="#6C6B6B"/>
<path d="M9.075 2.99377H9.0875L9.125 3.09377L9.15 3.20002L9.1625 3.33752V6.51877L9.15625 7.88752L9.14375 8.05627L9.11875 8.15627L9.1 8.20627H9.0875L9.10625 8.11252L9.1125 7.16877V3.17502L9.09375 3.05627L9.075 2.99377Z" fill="#6C6B6B"/>
<path d="M4.3125 1.61877H5.1L5.55625 1.62502L5.84375 1.63127L5.8625 1.63752L5.86875 1.65627L5.875 2.00627V2.08127L5.88125 2.20002L5.8875 2.26252V2.33752L5.89375 2.38752L5.8875 2.43752H5.875L5.86875 2.46877H5.85625L5.84375 2.49377H5.81875L5.825 1.93752L5.83125 1.66252H4.1625V2.50002L4.1375 2.48752L4.13125 2.40002L4.11875 2.18752V1.99377L4.125 1.76877L4.1375 1.65627L4.1625 1.63752L4.3125 1.61877Z" fill="#6C6B6B"/>
<path d="M4.1875 0.831238H5.75L5.96875 0.843738L6.09375 0.874988L6.15 0.893738V0.899988L6.0875 0.893738L6.0375 0.887488H5.3375L5.325 0.881238L5.20625 0.874988H4.9125L4.55 0.868738H4.2375L4.04375 0.874988L3.9625 0.881238L3.9375 0.887488L3.89375 0.881238L3.9125 0.868738L4.00625 0.843738L4.05625 0.837488L4.1875 0.831238Z" fill="#6C6B6B"/>
<path d="M3.4375 1.28125L3.4625 1.3L3.45 1.3375L3.4375 1.35L3.425 1.41875L3.41875 1.51875L3.40625 1.55V1.6L3.4 1.6375L3.3875 1.8125L3.38125 2.10625V2.2L3.39375 2.35625V2.425L3.35 2.4875L3.325 2.49375V1.625L3.3375 1.5125L3.36875 1.4125L3.4125 1.30625L3.4375 1.28125Z" fill="#6C6B6B"/>
<path d="M4.3125 1.63751H4.53125L5.34375 1.64376L5.4875 1.65001V1.65626L4.6375 1.66251H4.1625V2.50001L4.15 2.47501L4.1375 2.36876L4.13125 2.25626V1.95001L4.14375 1.69376L4.15625 1.65001L4.18125 1.64376L4.3125 1.63751Z" fill="#6C6B6B"/>
<path d="M9.125 3.11249L9.1375 3.13749L9.15625 3.24374L9.1625 3.33749V6.51874H9.15625L9.15 3.80624L9.14375 3.75624L9.1375 3.29374L9.125 3.16249V3.11249Z" fill="#6C6B6B"/>
<path d="M7.475 2.5H8.10625L8.31875 2.50625V2.51875L7.8 2.525L6.99375 2.51875L6.7625 2.5125V2.50625L7.475 2.5Z" fill="#6C6B6B"/>
<path d="M5.83125 1.66248H5.85625V2.09998L5.85 2.30623V2.47498L5.81875 2.49373L5.825 1.93748L5.83125 1.66248Z" fill="#6C6B6B"/>
<path d="M3.875 0.881226L3.89375 0.887476L3.8625 0.912476L3.79375 0.937476L3.775 0.956226H3.7625V0.981226L3.7375 0.987476V0.999976L3.71875 1.00623L3.70625 1.01873L3.66875 1.03123L3.6625 1.04998H3.65L3.6375 1.09373L3.60625 1.13123L3.56875 1.14998L3.54375 1.19373L3.525 1.21873L3.5 1.24998L3.48125 1.28123H3.46875L3.4625 1.29998L3.4375 1.28748L3.41875 1.30623L3.43125 1.26873L3.475 1.19998L3.51875 1.14373L3.575 1.08123L3.6625 0.999976L3.76875 0.931226L3.875 0.881226Z" fill="#6C6B6B"/>
<path d="M6.625 1.44373L6.6375 1.46248L6.65625 1.56873L6.6625 1.68123V2.46873H6.65625L6.64375 2.35623L6.6375 2.18123L6.63125 1.51248L6.625 1.44373Z" fill="#6C6B6B"/>
<path d="M3.34375 1.48749H3.35V2.11249L3.3375 2.41249L3.35 2.42499V2.46874L3.33125 2.48749H3.325V1.62499L3.3375 1.51249L3.34375 1.48749Z" fill="#6C6B6B"/>
<path d="M6.5875 1.35626H6.6L6.625 1.41876L6.6375 1.51251L6.64375 2.18126L6.65 2.35626L6.6625 2.46876V2.50626L6.65625 2.49376H6.6375V2.41251L6.625 2.25626L6.6125 1.50001L6.59375 1.38751L6.5875 1.35626Z" fill="#6C6B6B"/>
<path d="M4.1875 0.831238H5.75L5.96875 0.843738L6.025 0.856238V0.862488L5.9 0.856238L5.73125 0.843738H4.2625L4.19375 0.849988L4.025 0.856238L3.95625 0.862488L3.975 0.849988L4.05625 0.837488L4.1875 0.831238Z" fill="#6C6B6B"/>
<path d="M4.1625 1.63751H4.2L4.18125 1.65001L4.15625 1.65626L4.15 1.70626L4.1375 1.95001V2.25626L4.15 2.43751L4.15625 2.49376L4.1375 2.48751L4.13125 2.40001L4.11875 2.18751V1.99376L4.125 1.76876L4.1375 1.65626L4.1625 1.63751Z" fill="#6C6B6B"/>
<path d="M6.3125 0.993774L6.3375 1.00627L6.4 1.06252L6.44375 1.10627L6.5125 1.19377L6.5625 1.27502L6.59375 1.34377H6.58125L6.55 1.29377L6.53125 1.23752H6.51875L6.5 1.20627V1.19377L6.48125 1.18752L6.425 1.11252L6.3875 1.07502V1.06252L6.3625 1.05002L6.3125 1.00002V0.993774Z" fill="#6C6B6B"/>
<path d="M8.825 2.66876L8.85625 2.68751L8.91875 2.74376L8.975 2.80626L9.05 2.91876L9.06875 2.95626L9.0625 2.96876L9.0375 2.93126L9.01875 2.90001L8.9625 2.82501L8.8875 2.73751L8.85 2.70626L8.825 2.68126V2.66876Z" fill="#6C6B6B"/>
<path d="M8.96875 8.40625H8.98125L8.96875 8.4375L8.89375 8.51875L8.83125 8.575L8.79375 8.6H8.78125V8.5875L8.80625 8.58125V8.56875L8.85625 8.525L8.88125 8.49375H8.89375V8.48125H8.90625L8.91875 8.45H8.93125L8.94375 8.425H8.95625V8.4125L8.96875 8.40625Z" fill="#6C6B6B"/>
<path d="M0.837497 3.21875H0.843747V3.44375L0.837497 3.55L0.824997 3.55625V3.425L0.831247 3.275L0.837497 3.21875Z" fill="#6C6B6B"/>
<path d="M3.875 0.881226L3.89375 0.887476L3.8625 0.912476L3.8125 0.931226H3.78125L3.80625 0.912476L3.875 0.881226Z" fill="#6C6B6B"/>
<path d="M9.125 8.08752H9.13125L9.125 8.13752L9.1 8.20627H9.0875L9.10625 8.11877L9.125 8.11252V8.08752Z" fill="#6C6B6B"/>
<path d="M6.025 0.862488L6.075 0.868738L6.15 0.893738V0.899988L6.0875 0.893738L6.025 0.868738V0.862488Z" fill="#6C6B6B"/>
<path d="M0.9375 8.29376L0.9625 8.30001V8.31876L0.975 8.33126L0.99375 8.36251V8.37501L0.975 8.36876L0.9375 8.30626V8.29376Z" fill="#6C6B6B"/>
<path d="M6.5375 1.25623L6.55625 1.26248L6.59375 1.34373H6.58125L6.55 1.29373L6.5375 1.25623Z" fill="#6C6B6B"/>
</svg>
