<svg width="32" height="32" viewBox="0 0 32 32" fill="none" xmlns="http://www.w3.org/2000/svg">
<path d="M16 29C8.83187 29 3 23.1581 3 15.9781C3 12.075 4.70313 8.41564 7.6725 5.94377C7.81114 5.82765 7.97133 5.74003 8.14389 5.68591C8.31645 5.6318 8.49799 5.61225 8.67811 5.6284C8.85823 5.64455 9.0334 5.69607 9.19358 5.78001C9.35376 5.86396 9.49581 5.97867 9.6116 6.1176C9.72738 6.25652 9.81462 6.41691 9.86832 6.5896C9.92202 6.76229 9.94113 6.94387 9.92455 7.12396C9.90797 7.30404 9.85603 7.47908 9.77171 7.63906C9.68738 7.79904 9.57232 7.94082 9.43312 8.05627C7.0925 10.0063 5.75 12.8938 5.75 15.9781C5.75 21.6419 10.3481 26.25 16 26.25C21.6519 26.25 26.25 21.6419 26.25 15.9781C26.2498 14.4645 25.9144 12.9697 25.2679 11.601C24.6214 10.2324 23.6797 9.02397 22.5106 8.06252C22.3658 7.94946 22.2451 7.80853 22.1557 7.64806C22.0663 7.48758 22.0099 7.3108 21.9899 7.12817C21.9699 6.94555 21.9868 6.76077 22.0394 6.58475C22.092 6.40874 22.1794 6.24506 22.2964 6.10337C22.4133 5.96169 22.5575 5.84489 22.7203 5.75985C22.8832 5.67482 23.0614 5.62328 23.2445 5.60829C23.4276 5.59329 23.6119 5.61514 23.7864 5.67255C23.9609 5.72995 24.1222 5.82175 24.2606 5.94252C25.7427 7.16149 26.9363 8.69362 27.7558 10.4288C28.5753 12.164 29.0002 14.0592 29 15.9781C29 23.1581 23.1681 29 16 29Z" fill="#61098A"/>
<path d="M16 17C15.6353 17 15.2856 16.8551 15.0277 16.5973C14.7699 16.3394 14.625 15.9897 14.625 15.625V4.375C14.625 4.01033 14.7699 3.66059 15.0277 3.40273C15.2856 3.14487 15.6353 3 16 3C16.3647 3 16.7144 3.14487 16.9723 3.40273C17.2301 3.66059 17.375 4.01033 17.375 4.375V15.625C17.375 15.9897 17.2301 16.3394 16.9723 16.5973C16.7144 16.8551 16.3647 17 16 17Z" fill="#61098A"/>
</svg>
