<svg width="9" height="9" viewBox="0 0 9 9" fill="none" xmlns="http://www.w3.org/2000/svg">
<path d="M8.74786 8.0533L6.73455 6.03184C7.21927 5.38394 7.48093 4.59532 7.48005 3.785C7.48005 1.7152 5.8029 0.03125 3.74146 0.03125C1.68001 0.03125 0.00286865 1.7152 0.00286865 3.785C0.00286865 5.8548 1.68001 7.53875 3.74146 7.53875C4.54851 7.53964 5.33394 7.27691 5.97922 6.79023L7.99252 8.8117C8.09443 8.90317 8.22736 8.952 8.364 8.94816C8.50064 8.94432 8.63063 8.8881 8.72729 8.79105C8.82395 8.694 8.87994 8.56348 8.88376 8.42628C8.88759 8.28909 8.83896 8.15563 8.74786 8.0533ZM1.07104 3.785C1.07104 3.2547 1.22765 2.73631 1.52108 2.29538C1.81451 1.85445 2.23158 1.51079 2.71953 1.30785C3.20749 1.10491 3.74442 1.05181 4.26243 1.15527C4.78044 1.25873 5.25627 1.51409 5.62973 1.88907C6.0032 2.26405 6.25753 2.7418 6.36057 3.26191C6.46361 3.78203 6.41072 4.32114 6.20861 4.81107C6.00649 5.301 5.66421 5.71976 5.22506 6.01438C4.78592 6.309 4.26962 6.46625 3.74146 6.46625C3.03348 6.4654 2.35474 6.18264 1.85412 5.67999C1.35351 5.17734 1.07189 4.49585 1.07104 3.785Z" fill="white"/>
</svg>
