<svg xmlns="http://www.w3.org/2000/svg" xmlns:xlink="http://www.w3.org/1999/xlink" viewBox="0,0,256,256" width="480px" height="480px" fill-rule="nonzero"><g fill="#b196d0" fill-rule="nonzero" stroke="none" stroke-width="1" stroke-linecap="butt" stroke-linejoin="miter" stroke-miterlimit="10" stroke-dasharray="" stroke-dashoffset="0" font-family="none" font-weight="none" font-size="none" text-anchor="none" style="mix-blend-mode: normal"><g transform="scale(5.33333,5.33333)"><path d="M2.9,17l13.1,-11v22zM11,33h4v8h-4zM5,33h4v8h-4zM17,33h4v8h-4zM23,33h4v8h-4z"></path><path d="M31,13h-17v8h17c3.3,0 6,2.7 6,6c0,3.3 -2.7,6 -6,6h-2v8h2c7.7,0 14,-6.3 14,-14c0,-7.7 -6.3,-14 -14,-14z"></path></g></g></svg>